<?xml version="1.0" encoding="utf-8"?>
<!-- Generator: Adobe Illustrator 24.0.3, SVG Export Plug-In . SVG Version: 6.00 Build 0)  -->
<svg version="1.1" id="Capa_1" xmlns="http://www.w3.org/2000/svg" xmlns:xlink="http://www.w3.org/1999/xlink" x="0px" y="0px"
	 viewBox="0 0 774.1 203.3" style="enable-background:new 0 0 774.1 203.3;" xml:space="preserve">
<style type="text/css">
	.st0{fill:#1D1281;}
</style>
<g>
	<g>
		<path class="st0" d="M15.3,108.6c0,25.1,18.8,44.9,42.7,44.9c8.8,0,16.7-2.2,23.6-6.5l1.2-0.8v5.6h27.6v-86H82.8v5.4l-1.2-0.8
			C74.8,66,66.8,63.8,58,63.8C34,63.8,15.3,83.5,15.3,108.6z M86.4,108.7c0,14.3-8.2,22.5-22.5,22.5c-12.3,0-21.4-9.7-21.4-22.5
			c0-12.9,9.2-22.7,21.4-22.7C84.2,86,86.4,101.9,86.4,108.7z"/>
		<path class="st0" d="M158.6,110.5V65.8H131v49.3c0,24,14.3,39.5,36.6,39.5c8.6,0,16.1-2.6,23.5-8.3l1.4-1v6.6H220v-86h-27.6v54.8
			l-0.2,0.2c-5.3,5.8-11,8.9-16.7,8.9C164.7,129.7,158.6,122.8,158.6,110.5z"/>
		<path class="st0" d="M292.2,129.2c-9.4,0-14.5-5-14.5-14v-26h29.8V65.7h-29.8V30.4L250,44.6v21.1h-17.1v23.5H250V116
			c0,23.3,13.5,38.3,34.4,38.3c8.3,0,14.7-0.6,25.7-4.1l-3-23.2C300.7,128.4,296.3,129.2,292.2,129.2z"/>
		<path class="st0" d="M365.5,63.8c-26.9,0-45.8,18.5-45.8,44.9c0,26.5,19.3,45.1,47.1,45.1c21,0,37.2-10.9,41.6-27.7H381
			c-2.8,4.1-7.7,6.3-13.8,6.3c-10.4,0-17.7-5.2-20.5-14.7l-0.3-1h62.7c0.5-3.1,0.5-6.4,0.5-9.7C409.4,81.5,391.3,63.8,365.5,63.8z
			 M345.9,101l0.2-1c2.4-9.7,9.4-15.3,19.2-15.3c10.1,0,16.5,5.4,18.2,15.4l0.2,0.9H345.9L345.9,101z"/>
		<path class="st0" d="M478.2,63.1c-8.7,0-16.5,2.8-23.7,8.5l-1.4,1v-6.9h-27.6v85.9h27.6V97.3l0.2-0.2c5.2-5.9,9.5-9.1,16.9-9.1
			c10.6,0,16.7,7.1,16.7,19.2v44.6h27.7v-49.3C514.8,78.6,500.4,63.1,478.2,63.1z"/>
		<path class="st0" d="M584.7,129.2c-9.4,0-14.5-5-14.5-14v-26H600V65.7h-29.8v-43l-27.6,14.2v28.8h-17.1v23.5h17.1V116
			c0,23.3,13.5,38.3,34.4,38.3c8.3,0,14.7-0.6,25.7-4.1l-3-23.2C593.2,128.4,588.8,129.2,584.7,129.2z"/>
		<rect x="619.7" y="65.8" class="st0" width="27.6" height="85.9"/>
		<path class="st0" d="M707.6,63.8c-24,0-42.7,19.7-42.7,44.9s18.8,44.9,42.7,44.9c8.8,0,16.7-2.2,23.6-6.5l1.2-0.8v5.6H760v-86
			h-27.6v5.4l-1.2-0.8C724.5,66,716.5,63.8,707.6,63.8z M736,108.7c0,14.3-8.2,22.5-22.5,22.5c-12.3,0-21.4-9.7-21.4-22.5
			c0-12.9,9.2-22.7,21.4-22.7C733.8,86,736,101.9,736,108.7z"/>
		<path class="st0" d="M632.6,19.1c-8.5,0.3-15.6,7.4-15.6,15.7c0,4.3,1.6,8.2,4.6,11.1c3.1,3.1,7.5,4.8,12.3,4.7
			c8.6-0.2,15.9-7.4,15.9-15.6c0-4.4-1.7-8.3-4.8-11.2C641.8,20.5,637.3,18.8,632.6,19.1z"/>
	</g>
	<g>
		<rect x="425.6" y="168.8" class="st0" width="89.3" height="17"/>
	</g>
</g>
</svg>
